<svg width="40" height="24" viewBox="0 0 40 24" fill="none" xmlns="http://www.w3.org/2000/svg">
<path d="M17.221 21.6066L17.1168 20.9074L17.0687 20.5799L16.7642 18.5486L15.0148 17.3471L13.8746 16.5635L11.4821 16.6359L10.2718 16.672L9.73677 18.8319L9.39812 21.1425L9.2819 21.9281L8.9633 22.6655L8.94727 22.8182L11.2517 23.0713L11.8428 23.0773L11.957 23.0894L14.5339 22.8242L16.9806 23.1296L17.4475 23.1195V23.1175L17.221 21.6066Z" fill="#FFD3AA"/>
<path d="M8.89966 22.8124L8.96395 22.6657L8.94788 22.8184L8.89966 22.8124Z" fill="#FFD3AA"/>
<path d="M11.8428 23.0773L11.9571 23.0894L11.6745 23.1175L11.2517 23.0713L11.8428 23.0773Z" fill="#FFD3AA"/>
<path d="M17.4581 23.1901L16.9812 23.1298L17.4481 23.1198L17.4581 23.1901Z" fill="#FFD3AA"/>
<path d="M23.9461 22.6595L23.9261 22.1954L23.896 21.4741V21.4098L23.7317 20.9618L23.3089 19.7884L23.2508 19.26L22.2669 19.3182L20.8683 18.9164L19.5758 18.2795L18.3194 17.5522L17.572 16.3024L17.1492 14.9181L17.0249 13.5137L17.055 13.5257L16.9708 12.8848C16.9688 12.8406 16.9728 12.7944 16.9728 12.7502H16.9588L16.8346 12.7L16.9969 11.6934L17.077 10.1905L17.9146 8.94277L19.0127 7.97233L20.2651 7.14454L21.79 7.15459L22.6557 7.01796L22.4753 5.9993L22.3591 4.46629L21.6658 3.08999L21.277 2.80067L20.4394 2.18385L19.151 1.35606L17.8385 0.912028L16.4719 0.743256L15.1874 1.18729L13.7687 1.44848L12.6867 2.33454L11.8892 2.52139L11.3722 2.64194L9.8132 2.8288L8.23018 2.71829L6.67723 3.18241L5.1383 3.42352L3.50118 3.41146L2.15662 4.30153L0.97637 5.34431L0.0766557 6.68444L-0.00950687 8.29782L-0.183838 9.37876L-0.0495826 9.431L1.27093 9.6279L2.22475 8.54696L2.67561 10.0438L4.04622 10.532L5.43887 10.6225L6.7694 10.6064L7.84345 10.6827L7.94965 10.6425L8.14402 9.69622L8.75719 10.4758L10.3362 10.2688L12.1436 10.0418L13.4642 9.63594L14.4881 9.5174L13.4822 9.9775L12.2098 10.4758L11.0455 10.7129L9.63085 10.964L8.22618 11.2393L6.79545 11.394L6.43877 11.3397L6.03601 11.3598L5.22246 12.4589L4.67141 11.2694L2.96416 10.8575L1.17274 10.6888L0.0205491 10.2528L0.154804 11.7617L0.607669 13.2485L1.4112 14.5906L2.75977 15.3722L4.14841 16.0573L5.65127 16.4873L7.23028 16.3949L8.76921 16.5596L9.38238 16.6299L8.48467 19.2258L6.77942 19.8004L8.28028 20.4153L7.96568 22.0648L9.21406 21.0502L9.39841 21.1426L9.73705 18.832L10.2721 16.6721L11.4824 16.636H11.4804L13.8749 16.5616L15.0151 17.3452L15.1273 20.0616L13.7507 21.2229L15.3718 21.241L15.6824 22.8926L16.4799 21.4721L17.2213 21.6067L17.4477 23.1176L17.9026 23.1076L19.4175 23.1176L20.9344 22.9589L22.4513 22.9709L23.9601 22.985L23.9461 22.6595ZM16.52 4.98868C16.52 4.98868 16.8847 4.59689 17.047 4.53661C17.2373 4.4683 17.8565 4.54264 17.8565 4.54264L18.8384 5.14339C18.8384 5.14339 19.0889 5.8687 19.0708 6.11784C19.0608 6.27657 18.9246 6.57795 18.8384 6.71056C18.7883 6.78891 18.6641 6.93759 18.5799 6.97376C18.2252 7.1365 17.4077 7.15459 17.0289 7.06216C16.8506 7.01796 16.3957 6.68645 16.3957 6.68645L16.1413 5.74614L16.52 4.98868ZM14.1314 6.50763C14.1314 6.50763 13.4201 6.13593 13.2918 5.91291C13.1956 5.74614 13.0654 5.3423 13.0494 5.14138C13.0353 4.96859 13.1035 4.45423 13.1035 4.45423L14.0112 3.71887C14.0112 3.71887 14.8207 3.53 15.0812 3.60434C15.3197 3.67266 15.7625 4.00016 15.8667 4.2292C16.015 4.54063 15.8427 5.6055 15.8427 5.6055L15.1253 6.38909L14.1314 6.50763Z" fill="#388D3D"/>
<path d="M15.0072 4.27341C14.8469 4.2272 14.3459 4.34373 14.3459 4.34373L13.7848 4.79781C13.7848 4.79781 13.7428 5.11727 13.7508 5.22175C13.7608 5.34632 13.8409 5.59546 13.9011 5.69994C13.9812 5.83857 14.42 6.06762 14.42 6.06762L15.0332 5.99328L15.4781 5.50906C15.4781 5.50906 15.5843 4.85005 15.4941 4.65717C15.428 4.51652 15.1554 4.31359 15.0072 4.2714V4.27341Z" fill="#183B1A"/>
<path d="M17.6123 5.02889C17.6123 5.02889 17.2295 4.98268 17.1113 5.02488C17.0111 5.06305 16.7867 5.30415 16.7867 5.30415L16.5522 5.77229L16.7085 6.35295C16.7085 6.35295 16.9911 6.55789 17.1013 6.58602C17.3357 6.64428 17.8427 6.63223 18.0611 6.53177C18.1132 6.50967 18.1894 6.41725 18.2214 6.36902C18.2755 6.28665 18.3597 6.09979 18.3657 6.00134C18.3757 5.84663 18.2214 5.39858 18.2214 5.39858L17.6143 5.02688L17.6123 5.02889Z" fill="#183B1A"/>
<path d="M33.4846 5.71608L33.3704 5.64375L32.3524 5.30018L31.2924 5.16757L30.2965 5.51114L29.1964 5.71608L28.6714 6.14404C28.1324 6.17016 27.5974 6.20431 27.0664 6.24651C26.8379 6.26459 26.5153 6.24249 26.347 6.04358C26.2889 5.97527 26.2668 5.90294 26.2548 5.83462C26.1586 5.30822 26.4872 4.9325 26.8139 4.59495C27.3429 4.05247 27.8899 3.52204 28.439 2.99363C29.0642 2.38886 29.7134 1.77204 30.7133 1.51486C31.635 2.91728 32.5608 4.31567 33.4806 5.71809L33.4846 5.71608Z" fill="#FF4D00"/>
<path d="M39.9888 7.71122C39.7363 9.20405 39.1432 10.5602 38.2395 11.7175C37.3738 11.151 36.7847 10.4518 36.2757 9.70634L36.2437 9.52953L36.1535 8.3421L35.6165 7.27321L35.3159 7.05019L34.6667 6.57L34.4282 6.4173C35.9972 6.4836 37.5922 6.60817 39.2073 6.79101C39.3376 6.80507 39.4738 6.82315 39.6041 6.88544C39.9808 7.06828 40.0309 7.45002 39.9868 7.71122H39.9888Z" fill="#FF4D00"/>
<path d="M31.6192 22.6315L31.5331 22.0629L31.495 21.7977L31.2465 20.1481L29.8258 19.1716L28.9001 18.5347L26.9564 18.593L25.9725 18.6231L25.5397 20.3772L25.2631 22.2537L25.169 22.8927L24.9105 23.4914L24.8984 23.616L26.77 23.8209L27.2489 23.8269L27.3431 23.835L29.4351 23.62L31.4229 23.8691L31.8016 23.8611V23.8591L31.6192 22.6315Z" fill="#FFD3AA"/>
<path d="M37.0392 22.4707L36.5643 21.1547L36.3779 19.489L36.2396 17.9359L35.9731 16.4753L35.915 15.0949L36.0833 13.7166L36.0192 12.4629L36.1094 11.2112L35.887 9.95343L35.7928 8.70773L35.2297 7.59062L34.9131 7.35353L34.2318 6.85324L33.1858 6.18016L32.1198 5.81851L31.0077 5.68188L29.9657 6.04354L28.8135 6.25651L27.9358 6.97379L27.2866 7.12649L26.8658 7.22494L25.6014 7.37764L24.3149 7.28723L23.0525 7.66295L22.5576 7.74131L22.6417 8.20141L22.5456 9.54958L22.6137 10.8937L22.4333 12.3765L22.4875 13.7026L23.1267 13.6945L24.0003 13.7568L24.0865 13.7247L24.2448 12.9572L24.7417 13.5901L26.0262 13.4213L27.493 13.2364L28.567 12.9069L29.3986 12.8105L28.5811 13.1842L27.5471 13.5901L26.6013 13.7829L25.4531 13.9859L24.3109 14.2089L23.1487 14.3335L22.8602 14.2913L22.5756 14.3053L22.78 15.4285L22.9283 17.0941L23.0786 18.4222L23.5034 18.3981L24.7538 18.5307L25.2507 18.5889L24.5193 20.6966L23.7318 20.9618L23.6677 20.9839L23.1347 21.1647L23.6837 21.3877L23.8961 21.4741L24.355 21.663L24.0985 23.0031L25.1125 22.1794L25.2627 22.2557L25.2988 22.0146L25.3689 21.5324L25.5373 20.3771L25.7316 19.5975L25.7557 19.5011L25.9741 18.6231L26.956 18.5929H26.954L28.8997 18.5327L29.8274 19.1696V19.1736L29.9176 21.3757L28.7995 22.32L30.116 22.3341L30.3685 23.6762L31.0157 22.5209L31.6188 22.6314L31.8032 23.859L32.1719 23.851L33.4022 23.859L34.6346 23.7284L35.8669 23.7405L37.0933 23.7505L37.0392 22.4707ZM29.1081 10.3653C29.1081 10.3653 28.531 10.0639 28.4268 9.8831C28.3466 9.74648 28.2424 9.41898 28.2284 9.25624C28.2184 9.11559 28.2725 8.69768 28.2725 8.69768L29.0099 8.10095C29.0099 8.10095 29.6671 7.94624 29.8795 8.00652C30.0739 8.06278 30.4326 8.32799 30.5167 8.51484C30.637 8.768 30.4987 9.63196 30.4987 9.63196L29.9156 10.2689L29.1081 10.3653ZM33.1197 10.0499C33.1117 10.1785 33.0015 10.4236 32.9313 10.5301C32.8913 10.5944 32.7911 10.7149 32.7229 10.743C32.4344 10.8777 31.7691 10.8917 31.4605 10.8154C31.3163 10.7812 30.9476 10.51 30.9476 10.51L30.7412 9.74648L31.0498 9.13167C31.0498 9.13167 31.3443 8.81421 31.4766 8.76398C31.6309 8.70773 32.1338 8.77001 32.1338 8.77001L32.9313 9.25825C32.9313 9.25825 33.1337 9.84694 33.1197 10.0499Z" fill="#388D3D"/>
<path d="M22.6138 10.8937L22.4334 12.3765L22.4875 13.7025L22.0467 13.7086L20.9145 13.6342L19.8024 13.2384L19.4357 12.0229L18.6622 12.9009L17.5882 12.7401L17.48 12.6979L17.6202 11.8199L17.6904 10.5099L18.4218 9.42096L19.3796 8.57308L20.4737 7.85178L21.8042 7.85981L22.5576 7.74127L22.6418 8.20138L22.5456 9.54954L22.6138 10.8937Z" fill="#388D3D"/>
<path d="M23.0788 18.4221L22.2192 18.4723L20.9989 18.1227L19.8707 17.5661L18.7746 16.9312L18.1234 15.8422L17.7547 14.6347L17.6465 13.4091L18.5803 13.7627L20.037 13.8994L21.4237 14.2349L21.8725 15.1993L22.5318 14.3072L22.5759 14.3052L22.7803 15.4284L22.9285 17.094L23.0788 18.4221Z" fill="#388D3D"/>
<path d="M29.8217 8.55096C29.6915 8.51279 29.2847 8.60923 29.2847 8.60923L28.8278 8.97892C28.8278 8.97892 28.7938 9.23811 28.7998 9.3245C28.8078 9.42496 28.8739 9.62789 28.922 9.71227C28.9861 9.82479 29.3448 10.0116 29.3448 10.0116L29.8438 9.95137L30.2045 9.55757C30.2045 9.55757 30.2906 9.02312 30.2165 8.86641C30.1624 8.75188 29.942 8.58713 29.8217 8.55297V8.55096Z" fill="#183B1A"/>
<path d="M31.9376 9.16357C31.9376 9.16357 31.627 9.1254 31.5308 9.16156C31.4486 9.1917 31.2663 9.3886 31.2663 9.3886L31.0759 9.77035L31.2042 10.2425C31.2042 10.2425 31.4326 10.4093 31.5228 10.4314C31.7131 10.4776 32.1239 10.4695 32.3023 10.3872C32.3443 10.3691 32.4065 10.2947 32.4325 10.2546C32.4766 10.1883 32.5447 10.0376 32.5487 9.9572C32.5567 9.83263 32.4325 9.46696 32.4325 9.46696L31.9396 9.16558L31.9376 9.16357Z" fill="#183B1A"/>
</svg>
