<svg width="33" height="32" viewBox="0 0 33 32" fill="none" xmlns="http://www.w3.org/2000/svg">
<path d="M31.2206 12.4546C31.2206 12.4546 29.0692 12.118 28.3382 12.896C27.6073 13.674 26.45 13.6886 26.45 13.6886L23.6427 12.6728C23.6427 12.6728 20.2364 12.9996 19.5714 14.0598C18.9064 15.12 16.9526 15.6305 16.9526 15.6305C16.9526 15.6305 12.5205 16.5368 9.95366 15.8413C7.3872 15.1459 5.86879 14.6797 5.86879 14.6797L4.66831 15.221L2.50556 14.4799L9.34747 21.0675L17.8234 23.9934L27.5597 20.2283L30.6894 16.2237L31.2206 12.4546Z" fill="#C6B1A3"/>
<path d="M17.4023 6.29428L17.2939 6.08085C17.2548 6.01038 17.2087 5.94393 17.1557 5.88152L17.1142 5.83319L17.0336 5.74863L16.8653 5.5795L16.4989 5.7889C16.4321 5.82715 16.3653 5.86541 16.3008 5.91172C16.1671 5.99628 16.0289 6.08085 15.8883 6.19964C16.0796 6.23991 16.2616 6.22582 16.4413 6.1936C16.5312 6.17951 16.6188 6.15333 16.704 6.12313L16.7663 6.09696C16.7824 6.09092 16.7732 6.09696 16.7778 6.09494C16.7778 6.09494 16.7785 6.09629 16.7801 6.09897C16.7801 6.09897 16.7801 6.09897 16.7824 6.09494H16.7847L16.8262 6.12917C16.8861 6.18152 16.9483 6.22985 17.0174 6.27414L17.2225 6.41307C17.3032 6.45133 17.3723 6.49965 17.4645 6.53388C17.4576 6.4473 17.423 6.37481 17.4023 6.29428ZM20.5131 7.09966L20.4048 6.88623C20.3657 6.81576 20.3196 6.74932 20.2689 6.6869L20.2251 6.63858L20.1444 6.55401L19.9762 6.38488L19.6098 6.59227C19.5453 6.63052 19.4785 6.67079 19.4117 6.71509C19.278 6.80167 19.1397 6.88623 19.0015 7.00503C19.1904 7.0453 19.3748 7.0312 19.5522 6.99899C19.6444 6.98489 19.732 6.95872 19.8149 6.92852L19.8771 6.90234C19.8933 6.8963 19.884 6.90234 19.8887 6.90033C19.8887 6.90033 19.8894 6.90167 19.891 6.90435C19.891 6.90435 19.891 6.90435 19.8933 6.90033H19.8979L19.937 6.93456C19.997 6.98489 20.0592 7.03523 20.1283 7.07953L20.3334 7.21845C20.4141 7.25671 20.4832 7.30503 20.5754 7.33926C20.5684 7.25067 20.5362 7.1802 20.5131 7.09966ZM20.5131 7.09966L20.4048 6.88623C20.3657 6.81576 20.3196 6.74932 20.2689 6.6869L20.2251 6.63858L20.1444 6.55401L19.9762 6.38488L19.6098 6.59227C19.5453 6.63052 19.4785 6.67079 19.4117 6.71509C19.278 6.80167 19.1397 6.88623 19.0015 7.00503C19.1904 7.0453 19.3748 7.0312 19.5522 6.99899C19.6444 6.98489 19.732 6.95872 19.8149 6.92852L19.8771 6.90234C19.8933 6.8963 19.884 6.90234 19.8887 6.90033C19.8887 6.90033 19.8894 6.90167 19.891 6.90435C19.891 6.90435 19.891 6.90435 19.8933 6.90033H19.8979L19.937 6.93456C19.997 6.98489 20.0592 7.03523 20.1283 7.07953L20.3334 7.21845C20.4141 7.25671 20.4832 7.30503 20.5754 7.33926C20.5684 7.25067 20.5362 7.1802 20.5131 7.09966ZM20.5131 7.09966L20.4048 6.88623C20.3657 6.81576 20.3196 6.74932 20.2689 6.6869L20.2251 6.63858L20.1444 6.55401L19.9762 6.38488L19.6098 6.59227C19.5453 6.63052 19.4785 6.67079 19.4117 6.71509C19.278 6.80167 19.1397 6.88623 19.0015 7.00503C19.1904 7.0453 19.3748 7.0312 19.5522 6.99899C19.6444 6.98489 19.732 6.95872 19.8149 6.92852L19.8771 6.90234C19.8933 6.8963 19.884 6.90234 19.8887 6.90033C19.8887 6.90033 19.8894 6.90167 19.891 6.90435C19.891 6.90435 19.891 6.90435 19.8933 6.90033H19.8979L19.937 6.93456C19.997 6.98489 20.0592 7.03523 20.1283 7.07953L20.3334 7.21845C20.4141 7.25671 20.4832 7.30503 20.5754 7.33926C20.5684 7.25067 20.5362 7.1802 20.5131 7.09966ZM28.0691 18.6247L27.4723 17.7046L28.0645 16.8106L26.781 17.018L26.1611 15.824L25.933 16.9113L25.3776 17.2072L25.2094 15.5481L24.8799 13.9797L24.8108 12.5038L25.0182 11.0259L24.9375 9.68293L25.0481 8.33794L24.7739 6.99093L24.6587 5.65601L23.9651 4.458L22.7391 3.67074L21.4533 2.94992L20.1444 2.56333L18.7757 2.41635L17.4944 2.80092L16.0772 3.03046L14.9965 3.7996L13.6807 4.0694L12.123 4.23249L10.5422 4.13383L8.99365 4.54055L7.45664 4.74995L5.82055 4.73787L4.47711 5.51305L3.29728 6.42112L2.39858 7.58893L2.31331 8.99231L2.13818 9.9326L2.27184 9.97891L3.58993 10.1501L4.54393 9.20977L4.99559 10.5125L6.33672 10.7299L7.72625 10.8085L9.08352 10.7118L10.1297 10.8608L10.2357 10.8246L10.4293 10.0031L11.0814 10.6071L12.6852 10.6333L14.3835 10.1943L15.7892 9.72521L17.0336 9.11513L16.1279 9.82387L14.6347 10.5246L13.3558 11.0944L11.9432 11.3138L10.5399 11.5534L9.11117 11.6883L8.754 11.64L8.35304 11.6561L7.5396 12.6145L6.98886 11.5796L5.28363 11.2212L3.49315 11.0722L2.34327 10.6937L2.47692 12.0065L2.92858 13.3011L3.7328 14.4709L5.08085 15.1495L6.46577 15.7475L7.96821 16.122L9.54439 16.0394L11.0814 16.1844L12.5009 16.3273L11.9755 18.1213L11.7658 17.9804L10.473 17.8616L9.07661 17.9744L8.89226 16.7059L8.38069 17.8878L7.21929 17.9804L8.08804 18.7616L7.53499 19.6918L8.87613 19.3636L10.5814 20.4731L11.3579 20.8254L11.275 21.4939L11.2588 21.6288L13.5701 21.8503L14.1531 21.8563L14.2637 21.8664L16.84 21.6368L19.2826 21.9026L19.7504 21.8946L20.2067 21.8845L21.7206 21.8926L23.2346 21.7556L24.7509 21.7657L26.2579 21.7758L26.1911 20.4046L25.6058 18.9952L26.6289 18.5099L28.0691 18.6247ZM16.439 7.43389C16.439 7.43389 15.7293 7.10973 15.6002 6.91643C15.5035 6.76945 15.3744 6.42112 15.3583 6.24394C15.3445 6.09494 15.4113 5.64594 15.4113 5.64594L16.3192 5.00566C16.3192 5.00566 17.128 4.84056 17.3861 4.907C17.6281 4.96741 18.0659 5.25332 18.1742 5.45064C18.3194 5.72044 18.1489 6.64663 18.1489 6.64663L17.4322 7.32919L16.439 7.43389ZM21.375 7.09563C21.3634 7.23255 21.2275 7.4943 21.1399 7.61108C21.0892 7.67752 20.9648 7.8084 20.8818 7.84061C20.5293 7.97954 19.7112 7.99766 19.3333 7.91713C19.1559 7.87887 18.6996 7.58893 18.6996 7.58893L18.4461 6.77147L18.824 6.11105C18.824 6.11105 19.1881 5.77078 19.3517 5.71843C19.5407 5.65802 20.1606 5.72245 20.1606 5.72245L21.1399 6.24595C21.1399 6.24595 21.3911 6.87617 21.375 7.09563ZM20.4048 6.88623C20.3657 6.81576 20.3196 6.74932 20.2689 6.6869L20.2251 6.63858L20.1444 6.55401L19.9762 6.38488L19.6098 6.59227C19.5453 6.63052 19.4785 6.67079 19.4117 6.71509C19.278 6.80167 19.1397 6.88623 19.0015 7.00503C19.1904 7.0453 19.3748 7.0312 19.5522 6.99899C19.6444 6.98489 19.732 6.95872 19.8149 6.92852L19.8771 6.90234C19.8933 6.8963 19.884 6.90234 19.8887 6.90033C19.8887 6.90033 19.8894 6.90167 19.891 6.90435C19.891 6.90435 19.891 6.90435 19.8933 6.90033H19.8979L19.937 6.93456C19.997 6.98489 20.0592 7.03523 20.1283 7.07953L20.3334 7.21845C20.4141 7.25671 20.4832 7.30503 20.5754 7.33926C20.5684 7.25067 20.5362 7.1802 20.5131 7.09966L20.4048 6.88623ZM17.4023 6.29428L17.2939 6.08085C17.2548 6.01038 17.2087 5.94393 17.1557 5.88152L17.1142 5.83319L17.0336 5.74863L16.8653 5.5795L16.4989 5.7889C16.4321 5.82715 16.3653 5.86541 16.3008 5.91172C16.1671 5.99628 16.0289 6.08085 15.8883 6.19964C16.0796 6.23991 16.2616 6.22582 16.4413 6.1936C16.5312 6.17951 16.6188 6.15333 16.704 6.12313L16.7663 6.09696C16.7824 6.09092 16.7732 6.09696 16.7778 6.09494C16.7778 6.09494 16.7785 6.09629 16.7801 6.09897C16.7801 6.09897 16.7801 6.09897 16.7824 6.09494H16.7847L16.8262 6.12917C16.8861 6.18152 16.9483 6.22985 17.0174 6.27414L17.2225 6.41307C17.3032 6.45133 17.3723 6.49965 17.4645 6.53388C17.4576 6.4473 17.423 6.37481 17.4023 6.29428Z" fill="#388D3D"/>
<path d="M19.7619 21.9552L19.2826 21.9028L16.84 21.6371L14.2637 21.8666L13.9849 21.8907L13.5701 21.8505L11.2588 21.629L11.2104 21.625L11.275 21.4941L11.5953 20.8558L12.0492 18.1618L12.5815 16.2812L16.1833 16.1866L19.0683 17.9142L19.7504 21.8948L19.7619 21.9552Z" fill="#FFD3AA"/>
<path d="M20.5758 7.33945C20.4837 7.30522 20.4145 7.2569 20.3339 7.21864L20.1288 7.07971C20.0597 7.03542 19.9974 6.98508 19.9375 6.93475L19.8983 6.90052H19.8937C19.8937 6.90052 19.8914 6.90253 19.8914 6.90454C19.8914 6.90454 19.8907 6.9032 19.8891 6.90052C19.8891 6.90052 19.8937 6.89649 19.8776 6.90253L19.8154 6.92871C19.7324 6.95891 19.6449 6.98508 19.5527 6.99918C19.3753 7.03139 19.1909 7.04549 19.002 7.00522C19.1402 6.88642 19.2785 6.80186 19.4121 6.71528C19.479 6.67098 19.5458 6.63071 19.6103 6.59246L19.9767 6.38507L20.1449 6.5542L20.2256 6.63877L20.2694 6.68709C20.32 6.74951 20.3661 6.81595 20.4053 6.88642L20.5136 7.09985C20.5367 7.18039 20.5689 7.25086 20.5758 7.33945Z" fill="#183B1A"/>
<path d="M17.4644 6.53388C17.3722 6.49965 17.3031 6.45133 17.2224 6.41307L17.0173 6.27414C16.9482 6.22985 16.886 6.18152 16.8261 6.12917L16.7846 6.09494H16.7823L16.78 6.09897C16.78 6.09897 16.7792 6.09763 16.7777 6.09494C16.7777 6.09494 16.7823 6.09092 16.7661 6.09696L16.7039 6.12313C16.6187 6.15333 16.5311 6.17951 16.4412 6.1936C16.2615 6.22582 16.0794 6.23991 15.8882 6.19964C16.0287 6.08085 16.167 5.99628 16.3007 5.91172C16.3652 5.86541 16.432 5.82715 16.4988 5.7889L16.8652 5.5795L17.0335 5.74863L17.1141 5.83319L17.1556 5.88152C17.2086 5.94393 17.2547 6.01038 17.2938 6.08085L17.4021 6.29428C17.4229 6.37481 17.4575 6.4473 17.4644 6.53388Z" fill="#183B1A"/>
<path d="M31.2202 12.4543C31.2202 12.4543 32.1754 22.6511 26.2951 27.6618C20.4148 32.6725 13.2242 32.1896 7.26858 27.8038C1.73021 23.7251 2.50617 14.4795 2.50617 14.4795L5.34712 16.7087L8.30623 16.9542L10.2081 18.7099L13.0267 20.1303L13.7711 21.9009L15.1236 20.589L20.1344 19.6756L21.1512 20.8359L25.6469 18.068L29.0963 17.2148C29.0963 17.2148 30.9162 13.9956 31.2202 12.4543Z" fill="#EDE3E2"/>
<path d="M14.3564 4.08214C14.3564 4.08214 12.9907 4.13288 15.9491 2.41634C18.9074 0.699801 21.918 1.40907 24.0455 3.68987C26.0239 5.81095 25.2882 7.63503 25.2882 7.63503L24.2859 6.4888L23.0513 6.17705L22.4045 5.29781L21.3374 4.49675L21.1838 3.69234L20.4887 4.15488L18.276 4.19167L17.9505 3.62743L15.7864 4.48819L14.2425 4.60886C14.2425 4.60886 14.6271 3.44866 14.3564 4.08214Z" fill="#EDE3E2"/>
</svg>
