<svg width="24" height="24" viewBox="0 0 24 24" fill="none" xmlns="http://www.w3.org/2000/svg">
<path d="M14.2362 4.55955C14.0706 4.39399 13.8637 4.31121 13.6101 4.31121C13.2376 4.31121 12.9686 4.48712 12.7979 4.84411C12.4357 4.41468 11.939 4.20256 11.3078 4.20256C10.5524 4.20256 9.91608 4.49229 9.3987 5.07693C8.88132 5.66156 8.62781 6.37554 8.62781 7.21369C8.62781 8.05184 8.8865 8.76582 9.3987 9.35046C9.91608 9.93509 10.5524 10.2248 11.3078 10.2248C11.939 10.2248 12.4357 10.0127 12.7979 9.58328C12.9686 9.94027 13.2376 10.1162 13.6101 10.1162C13.8637 10.1162 14.0706 10.0334 14.2362 9.86266C14.4017 9.6971 14.4793 9.49015 14.4793 9.24698V5.15971C14.4845 4.92689 14.4017 4.71994 14.2362 4.55955ZM12.4305 8.22258C12.2184 8.49679 11.9287 8.63131 11.5562 8.63131C11.1836 8.63131 10.8939 8.49679 10.6818 8.22258C10.4697 7.94837 10.3662 7.61207 10.3662 7.20852C10.3662 6.80497 10.4697 6.46867 10.6818 6.19446C10.8939 5.92025 11.1836 5.78573 11.5562 5.78573C11.9287 5.78573 12.2184 5.92025 12.4305 6.19446C12.6427 6.46867 12.7461 6.80497 12.7461 7.20852C12.7461 7.61725 12.6375 7.95354 12.4305 8.22258Z" fill="#118ACB"/>
<path d="M16.4507 9.99201C16.2852 10.1576 16.0782 10.2455 15.8299 10.2455C15.5764 10.2455 15.3694 10.1627 15.2039 9.99201C15.0383 9.82645 14.9607 9.6195 14.9607 9.37633V1.86402C14.9607 1.62085 15.0435 1.41908 15.2039 1.24834C15.3694 1.08278 15.5764 1 15.8299 1C16.0834 1 16.2904 1.08278 16.4507 1.24834C16.6163 1.4139 16.6939 1.62085 16.6939 1.86402V9.37633C16.6939 9.6195 16.6111 9.82127 16.4507 9.99201Z" fill="#118ACB"/>
<path d="M22.1981 5.07693C21.6393 4.49229 20.9305 4.20256 20.0717 4.20256C19.2128 4.20256 18.5092 4.49229 17.9608 5.06658C17.4175 5.64087 17.1433 6.36002 17.1433 7.21369C17.1433 8.06736 17.4175 8.78652 17.9608 9.36081C18.504 9.94027 19.2076 10.2248 20.0717 10.2248C20.9305 10.2248 21.6393 9.93509 22.1981 9.35046C22.731 8.78134 23 8.06736 23 7.21369C23 6.35485 22.7362 5.64604 22.1981 5.07693ZM20.946 8.22258C20.7339 8.49679 20.4442 8.63131 20.0717 8.63131C19.6992 8.63131 19.4094 8.49679 19.1973 8.22258C18.9852 7.94837 18.8817 7.61207 18.8817 7.20852C18.8817 6.80497 18.9852 6.46867 19.1973 6.19446C19.4094 5.92025 19.6992 5.78573 20.0717 5.78573C20.4442 5.78573 20.7339 5.92025 20.946 6.19446C21.1582 6.46867 21.2616 6.80497 21.2616 7.20852C21.2668 7.61725 21.1582 7.95354 20.946 8.22258Z" fill="#118ACB"/>
<path d="M7.66528 4.40434C8.28095 3.61275 8.58621 3.07985 8.58621 2.80564C8.58621 2.16927 8.18783 1.85367 7.38589 1.85367H3.16927C2.83815 1.85367 2.57946 1.93127 2.39838 2.08649C2.2173 2.2417 2.12417 2.44865 2.12417 2.69699C2.12417 2.94533 2.2173 3.15228 2.39838 3.3075C2.57946 3.46271 2.83815 3.54032 3.16927 3.54032H6.06658L2.36216 8.33122C2.119 8.64682 2 8.92103 2 9.1642C2 9.86266 2.46047 10.2093 3.3814 10.2093H7.72736C8.42065 10.2093 8.76729 9.91957 8.76729 9.33493C8.76729 8.7503 8.42065 8.46057 7.72736 8.46057H4.52997L7.66528 4.40434Z" fill="#118ACB"/>
<path d="M6.96164 14.7778H5.81824V17.1525H6.96164C7.30311 17.1525 7.58249 17.0387 7.79462 16.8162C8.00674 16.5937 8.11539 16.3092 8.11539 15.9625C8.11539 15.6211 8.00674 15.3365 7.79462 15.1089C7.58249 14.8968 7.30828 14.7778 6.96164 14.7778Z" fill="#33B44A"/>
<path d="M12.6628 17.106C12.3006 17.106 12.016 17.2405 11.8091 17.5044C11.6021 17.7734 11.4987 18.0993 11.4987 18.4925C11.4987 18.8857 11.6021 19.2169 11.8091 19.4807C12.016 19.7446 12.3006 19.8791 12.6628 19.8791C13.0249 19.8791 13.3095 19.7446 13.5164 19.4807C13.7234 19.2117 13.8269 18.8857 13.8269 18.4925C13.8269 18.0993 13.7234 17.7682 13.5164 17.5044C13.3146 17.2353 13.0249 17.106 12.6628 17.106Z" fill="#33B44A"/>
<path d="M20.7805 11.3838H4.29175C3.73816 11.3838 3.29321 11.8339 3.29321 12.3823V22.0935C3.29321 22.647 3.74333 23.092 4.29175 23.092H17.252C17.1123 22.9627 17.0451 22.8074 17.0451 22.6315C17.0451 22.4867 17.0761 22.3366 17.1434 22.1814L17.7591 20.8104L16.0517 16.5524C16 16.4334 15.9741 16.2988 15.9741 16.154C15.9741 15.9677 16.0517 15.8125 16.2121 15.6832C16.3673 15.5538 16.5329 15.4917 16.7036 15.4917C17.0813 15.4917 17.34 15.6728 17.4745 16.0401L18.5351 18.9478L19.6734 16.0401C19.8182 15.6728 20.1183 15.4917 20.4908 15.4917C20.6616 15.4917 20.8271 15.5538 20.9823 15.6832C21.1375 15.8125 21.2203 15.9677 21.2203 16.154C21.2203 16.2988 21.1944 16.4282 21.1427 16.5524L18.5713 22.6884C18.5041 22.8592 18.4213 22.9937 18.323 23.092H20.7754C21.329 23.092 21.7739 22.6419 21.7739 22.0935V12.3823C21.7843 11.8339 21.3341 11.3838 20.7805 11.3838ZM9.03609 17.9182C8.51354 18.3942 7.85648 18.6374 7.06489 18.6374H5.82318V20.5672C5.82318 20.8414 5.74558 21.0587 5.59037 21.2139C5.43515 21.3691 5.23337 21.4416 4.98503 21.4416C4.73669 21.4416 4.53492 21.364 4.3797 21.2139C4.22449 21.0587 4.14688 20.8466 4.14688 20.5672V14.1724C4.14688 13.5878 4.43662 13.2981 5.02125 13.2981H6.99763C7.82543 13.2981 8.51355 13.5464 9.05162 14.0431C9.59486 14.5398 9.8639 15.1865 9.8639 15.9781C9.8639 16.78 9.58969 17.4267 9.03609 17.9182ZM15.524 20.4896C15.524 20.7276 15.4464 20.9242 15.286 21.0897C15.1256 21.2553 14.9238 21.3329 14.6755 21.3329C14.3133 21.3329 14.0495 21.157 13.8839 20.8104C13.5269 21.2294 13.0406 21.4364 12.4249 21.4364C11.6851 21.4364 11.0642 21.1518 10.5572 20.5827C10.0553 20.0136 9.80181 19.222 9.80181 18.4046C9.80181 17.5819 10.0553 16.8886 10.5572 16.3144C11.059 15.7452 11.6851 15.4607 12.4249 15.4607C13.0406 15.4607 13.5269 15.6676 13.8839 16.0867C14.0495 15.7401 14.3133 15.5642 14.6755 15.5642C14.9238 15.5642 15.1256 15.6469 15.286 15.8073C15.4464 15.9729 15.524 16.1695 15.524 16.4075V20.4896Z" fill="#33B44A"/>
</svg>
