<svg width="352" height="168" viewBox="0 0 352 168" fill="none" xmlns="http://www.w3.org/2000/svg">
<rect width="352" height="168" rx="8" fill="#F5F5F5"/>
<g clip-path="url(#clip0_12265_216693)">
<path d="M308.828 32.6207L308.933 32.6697L309.174 28.4592L308.986 24.1696L304.262 24.4599L299.61 24.1395L294.958 24.2676L290.306 24L285.654 24.2752L281.002 24.0113L276.349 24.3016L271.697 24.0678L267.045 24.1395L262.393 24.1244L257.737 24.4863L253.081 24.3506L248.624 24.2262L244.168 24.2526L239.711 24.2149L235.255 24.0754L230.799 24.0302L226.342 24.4938L221.886 24.0226L217.429 24.4938L212.973 24.0188L208.516 24.5126H204.06L199.603 24.0452L195.147 24.4373L190.69 24.1885L186.234 24.2149L181.777 24.0151L177.321 24.0603L172.865 24.049L168.408 24.0075L163.952 24.4297L159.495 24.4599L155.039 24.1885H150.582L146.126 24.0678L141.669 24.0151L137.213 24.3694L132.753 24.0264L128.296 24.1093L123.836 24.3129L120.175 24.4938L118.858 27.5207L115.587 28.708L111.844 27.2606L110.275 24.4335L106.529 24.1395L102.72 24.2186L98.9113 24.343L94.2591 24.4976L89.6182 24.0302H84.966L80.3138 24.4712L75.6616 24.4787L71.0095 24.1169L66.3573 24L61.7051 24.2865H57.0529L52.4007 24.5126L47.7448 24.0415L43.2243 24.3996L43.2657 28.4592L42.8969 32.6697L43.1716 32.7187L47.12 34.0116L48.362 37.9318L46.8565 41.5807L43.1716 43.0583L42.9985 43.1902L43.0324 47.4836L43.1942 51.7732L43.1716 51.8637L47.0108 53.2282L48.4486 57.0353L46.8828 60.7105L43.1754 62.4596L43.1603 62.4143L43.134 62.452L43.1189 62.3955L43.1076 62.2937L42.8856 65.9387L43.2017 69.5386L47.1651 70.398L50.9892 71.9661L54.4031 74.4388L56.3378 78.1819L57.4293 82.1398L57.6137 85.8527L56.5034 89.8822L54.1359 93.3162L50.929 95.9322L47.199 97.7151L42.9834 98.3634L43.0173 101.971L43.2657 105.533L43.1716 105.733L47.0597 106.935L48.5992 110.795L46.8339 114.421L43.1716 115.914L42.8291 116.053L43.2017 120.347L42.927 124.64L43.134 124.78L43.1716 124.414V124.742L47.0146 126.088L48.6406 129.899L47.0108 133.702L43.1754 134.938L43.2808 135.161L42.9157 139.45L43.2281 143.589L47.9405 143.781L52.7922 143.536L57.6438 143.778V143.514L61.9836 143.506L66.3234 143.744L70.6594 143.845L74.9954 143.725L79.3352 143.842L83.675 143.959L88.0148 143.623L92.3546 143.996L98.9226 143.71V143.966L102.728 143.8L106.537 143.608L110.391 143.883L111.814 140.69L115.594 139.043L118.952 140.385L120.1 143.793L123.84 143.597L128.296 143.985L132.753 143.759L137.209 143.815L141.665 143.725L146.122 143.691L150.578 143.966L155.035 143.698L159.491 143.766L163.948 143.793L168.404 143.925L172.861 143.559L177.317 143.747L181.774 143.974L186.23 143.623L190.687 143.778L195.143 143.567L199.6 143.559L204.056 144.004L208.512 143.551L212.969 143.928L217.425 143.827L221.882 143.533L226.338 143.864L230.795 143.883L235.251 143.54L239.711 143.6L244.168 143.487L248.628 143.582L253.088 143.721V143.977L259.656 143.898L264.485 144L269.311 143.932L274.14 143.951L278.969 143.714V143.721L283.245 143.574L287.521 143.823L291.796 143.921L296.076 143.714L300.352 143.702L304.631 143.604L309.001 143.83L308.843 139.45L308.858 135.161L308.832 135.115L304.902 133.804L303.254 129.899L305.023 126.122L308.832 124.851V124.497L308.869 124.67L308.711 124.633V120.343L308.971 116.05L308.832 115.827L305.038 114.549L303.468 110.787L305.075 107.067L308.828 105.789L308.836 105.525L308.884 101.963L308.711 98.4878L304.345 97.9262L300.431 95.5552L297.171 92.4417L294.992 88.4724L294.341 83.9906L294.973 79.5012L297.273 75.6149L300.261 72.1885L304.39 70.2057L309.02 69.629L309.095 65.935L308.911 62.2899L308.881 62.5463L308.862 62.1354L308.836 62.1278L308.821 62.3992L304.895 60.9292L303.54 57.0316L305.038 53.281L308.821 51.8712L308.666 51.7694L308.749 47.4798L309.114 43.1864L308.824 43.3674L304.947 41.7729L303.374 37.9243L305.139 34.2755L308.821 32.6132L308.828 32.6207ZM116.385 139.251L114.125 139.205L115.045 137.498L116.264 137.4L116.385 139.247V139.251ZM116.389 134.339L114.125 134.309L115.071 131.418L116.249 131.35L116.389 134.339ZM116.389 128.308L114.125 128.278L115.071 125.387L116.249 125.319L116.389 128.308ZM116.389 122.277L114.125 122.247L115.071 119.355L116.249 119.288L116.389 122.277ZM116.389 116.246L114.125 116.215L115.071 113.324L116.249 113.256L116.389 116.246ZM116.389 110.215L114.125 110.184L115.071 107.293L116.249 107.225L116.389 110.215ZM116.389 104.183L114.125 104.153L115.071 101.262L116.249 101.194L116.389 104.183ZM116.389 98.1524L114.125 98.1222L115.071 95.231L116.249 95.1632L116.389 98.1524ZM116.389 92.1213L114.125 92.0911L115.071 89.1999L116.249 89.1321L116.389 92.1213ZM116.389 86.0902L114.125 86.06L115.071 83.1688L116.249 83.101L116.389 86.0902ZM116.389 80.0591L114.125 80.0289L115.071 77.1377L116.249 77.0699L116.389 80.0591ZM116.389 74.028L114.125 73.9978L115.071 71.1066L116.249 71.0388L116.389 74.028ZM116.389 67.9969L114.125 67.9667L115.071 65.0755L116.249 65.0077L116.389 67.9969ZM116.389 61.9658L114.125 61.9356L115.071 59.0444L116.249 58.9766L116.389 61.9658ZM116.389 55.9347L114.125 55.9045L115.071 53.0133L116.249 52.9455L116.389 55.9347ZM116.389 49.9036L114.125 49.8734L115.071 46.9823L116.249 46.9144L116.389 49.9036ZM116.389 43.8725L114.125 43.8423L115.071 40.9512L116.249 40.8833L116.389 43.8725ZM116.389 37.8414L114.125 37.8112L115.071 34.9201L116.249 34.8522L116.389 37.8414ZM116.389 31.8103L114.125 31.7801L115.071 28.889L116.249 28.8211L116.389 31.8103Z" fill="#C1DCC3"/>
<path d="M97.3042 41.7239L92.9268 41.7691L88.5231 41.7804L84.1155 41.6146L79.7118 41.8558L75.3042 41.8294L70.8252 41.8068L70.7988 36.6012L75.3005 36.7822L79.7042 36.6578L84.108 36.6804L88.5155 36.6766L92.9193 36.7181L97.2327 36.7709L97.3042 41.7239Z" fill="#60A464"/>
<path d="M97.3049 45.1917L92.9275 45.1955L88.5237 45.1503L84.1162 45.2068L79.7124 45.3689L75.3049 45.2822L70.9162 45.2068L70.856 43.601L75.3011 43.6576L79.7049 43.8272L84.1087 43.8121L88.5162 43.6349L92.92 43.7066L97.3162 43.7631L97.3049 45.1917Z" fill="#60A464"/>
<path d="M97.2556 50.9854L92.9271 51.1739L88.5234 50.9628L84.1158 51.1362L79.7121 51.0721L75.3045 51.1249L70.9459 51.0231L70.9233 48.0377L75.3008 48.1131L79.7045 48.0114L84.1083 48.0792L88.5158 48.0604L92.9196 47.9963L97.3422 47.9812L97.2556 50.9854Z" fill="#60A464"/>
<path d="M97.3758 54.9396L92.9269 54.8227L88.5231 54.8302L84.1156 54.7925L79.7118 54.7247L75.3043 54.8152L70.8516 54.932L70.9193 52.5422H75.3005L79.7043 52.4404L84.108 52.4668L88.5156 52.4216L92.9193 52.4253L97.3758 52.414V54.9396Z" fill="#60A464"/>
<path d="M97.3196 58.0871L92.9272 58.2265L88.5234 58.0494L84.1159 58.1285L79.7121 58.1436L75.3046 58.1624L70.9008 58.1172L70.8857 57.4086L75.3008 57.45L79.7046 57.5593L84.1083 57.4915L88.5159 57.3897L92.9196 57.5367L97.3121 57.6008L97.3196 58.0871Z" fill="#60A464"/>
<path d="M97.3407 56.5868L92.9256 56.4247L88.5219 56.4322L84.1143 56.4888L79.7106 56.5981L75.303 56.3682L70.8955 56.5039L70.9106 55.9309L75.2993 55.8291L79.703 55.9611L84.1068 55.7387L88.5143 55.7764L92.9181 55.7123L97.3369 55.7839L97.3407 56.5868Z" fill="#60A464"/>
<path d="M97.3108 77.2018L92.9258 77.2998L88.522 77.1528L84.1145 77.2545L79.7107 77.1113L75.3032 77.198L70.8354 77.1339L70.8693 82.2641L75.2994 82.151H79.7032L84.107 82.3357L88.5145 82.2227L92.9183 82.1397L97.3258 82.2377L97.3108 77.2018Z" fill="#60A464"/>
<path d="M97.3534 73.6021L92.9271 73.6888L88.5233 73.6511L84.1158 73.685L79.712 73.7189L75.3045 73.685L70.8932 73.6548L70.8706 75.2832L75.3007 75.14L79.7045 75.1928L84.1083 75.3096L88.5158 75.1626L92.9196 75.3322L97.3346 75.2267L97.3534 73.6021Z" fill="#60A464"/>
<path d="M97.3258 67.8424L92.9258 67.8839L88.522 67.9215L84.1145 67.7368L79.7107 67.9215L75.3032 67.8876L70.8919 67.8349L70.8354 71.0125L75.2994 70.9069L79.7032 70.8466L84.107 70.824L88.5145 71.0577L92.9183 70.8089L97.2957 70.8806L97.3258 67.8424Z" fill="#60A464"/>
<path d="M97.371 63.9974L92.9258 63.9484L88.522 64.2047L84.1145 64.118L79.7107 63.9635L75.3032 64.1595L70.8806 64.0502L70.8354 66.5418L75.2994 66.3684L79.7032 66.4325L84.107 66.3797L88.5145 66.3232L92.9183 66.4212H97.3221L97.371 63.9974Z" fill="#60A464"/>
<path d="M97.3219 60.8124L92.9256 60.7181L88.5219 60.7257L84.1143 60.8878L79.7106 60.7031L75.303 60.7747L70.9143 60.8991L70.8955 61.4532L75.2993 61.3363L79.703 61.521L84.1068 61.3175L88.5143 61.3929L92.9181 61.4607L97.3369 61.5173L97.3219 60.8124Z" fill="#60A464"/>
<path d="M97.3114 62.5425L92.9265 62.486L88.5227 62.3201L84.1152 62.486L79.7114 62.5463L75.3039 62.5614L70.8926 62.3993L70.8963 63.1079L75.3001 63.0288L79.7039 63.123L84.1077 63.0816L88.5152 63.0175L92.919 63.0439L97.3152 63.0062L97.3114 62.5425Z" fill="#60A464"/>
<path d="M97.2813 90.7643L92.9265 90.6738L88.5227 90.8924L84.1152 90.8887L79.7114 90.7718L75.3039 90.8773L70.934 90.7718L70.8662 85.7245L75.3001 85.7471L79.7039 85.7547L84.1076 85.6567L88.5152 85.7924L92.9189 85.8791L97.2286 85.8376L97.2813 90.7643Z" fill="#60A464"/>
<path d="M97.3267 94.3188L92.9267 94.4168L88.5229 94.3339L84.1154 94.2359L79.7116 94.2962L75.3041 94.3263L70.9304 94.2283L70.9116 92.8186L75.3003 92.8374L79.7041 92.7319L84.1079 92.6678L88.5154 92.6716L92.9192 92.7884L97.3531 92.7055L97.3267 94.3188Z" fill="#60A464"/>
<path d="M97.3785 100.225L92.9258 100.241L88.522 100.252L84.1145 100.158L79.7107 100.101L75.3032 100.222L70.858 100.207L70.8354 96.9762L75.2994 97.0931L79.7032 96.9348L84.107 97.176L88.5145 97.0441L92.9183 97.1647L97.3747 96.9988L97.3785 100.225Z" fill="#60A464"/>
<path d="M97.3267 103.904L92.9267 104.033L88.523 104.002L84.1154 103.999L79.7117 103.788L75.3041 103.837L70.874 103.953L70.8815 101.537L75.3004 101.579L79.7041 101.556L84.1079 101.696L88.5154 101.688L92.9192 101.601L97.3418 101.537L97.3267 103.904Z" fill="#60A464"/>
<path d="M97.3188 107.165L92.9263 107.263L88.5226 107.293L84.115 107.203L79.7113 107.124L75.3037 107.316L70.8887 107.259L70.8924 106.521L75.3 106.641L79.7037 106.547L84.1075 106.607L88.515 106.577L92.9188 106.592L97.3226 106.573L97.3188 107.165Z" fill="#60A464"/>
<path d="M97.3256 105.548L92.9256 105.537L88.5219 105.465L84.1143 105.435L79.7106 105.473L75.303 105.608L70.8955 105.556L70.903 104.949L75.2993 104.926L79.703 104.813L84.1068 105.001L88.5143 104.896L92.9181 104.802L97.3219 104.937L97.3256 105.548Z" fill="#60A464"/>
<path d="M97.2827 126.291L92.9279 126.299L88.5241 126.238L84.1166 126.336L79.7128 126.269L75.3053 126.156L70.8149 126.178L70.8375 131.354L75.3015 131.395L79.7053 131.433L84.1091 131.331L88.5166 131.248L92.9204 131.429L97.2413 131.225L97.2827 126.291Z" fill="#60A464"/>
<path d="M97.3606 122.639L92.9267 122.812L88.523 122.733L84.1154 122.804L79.7117 122.816L75.3041 122.823L70.874 122.665L70.9004 124.267L75.3004 124.403L79.7041 124.395L84.1079 124.195L88.5154 124.395L92.9192 124.399L97.3606 124.358V122.639Z" fill="#60A464"/>
<path d="M97.3083 116.932L92.9271 116.841L88.5233 117.007L84.1158 116.883L79.712 116.958L75.3045 116.932L70.8442 116.826L70.9158 119.959L75.3007 119.898L79.7045 119.974L84.1082 120.106L88.5158 119.966L92.9195 119.91L97.3384 120.004L97.3083 116.932Z" fill="#60A464"/>
<path d="M97.324 113.155L92.9278 113.136L88.524 113.159L84.1165 113.098L79.7127 113.162L75.3052 113.132L70.9277 113.2V115.439L75.3014 115.503L79.7052 115.469L84.1089 115.428L88.5165 115.62L92.9202 115.447L97.3579 115.545L97.324 113.155Z" fill="#60A464"/>
<path d="M97.3453 109.721L92.9265 109.83L88.5227 109.785L84.1152 109.853L79.7114 109.766L75.3039 109.887L70.8926 109.815L70.9001 110.497L75.3001 110.524L79.7039 110.429L84.1076 110.55H88.5152L92.919 110.467L97.3265 110.497L97.3453 109.721Z" fill="#60A464"/>
<path d="M97.3341 111.458L92.9265 111.447L88.5228 111.36L84.1152 111.587L79.7115 111.406L75.3039 111.541L70.8813 111.394V112.254L75.3002 112.265L79.7039 112.077L84.1077 112.205L88.5152 112.144L92.919 112.126L97.3228 112.137L97.3341 111.458Z" fill="#60A464"/>
<path d="M152.253 110.165L167.442 110.341L166.983 95.4526L162.43 95.1588L162.919 101.765L157.337 95.3559L156.327 84.6741L159.722 74.9464L166.922 68.5373L166.463 62.0488L161.41 65.0805L156.626 69.5018L153.12 75.3716L150.612 82.0572L150.901 89.3547L151.781 96.6314L155.176 102.854L158.081 105.789L152.298 105.72L152.247 110.169L152.253 110.165Z" fill="#60A464"/>
<path d="M218.862 110.095L218.588 108.301L218.467 107.465L217.676 102.261L213.159 99.1801L210.215 97.1707L204.034 97.3545L200.906 97.4496L199.529 102.983L198.65 108.904L198.35 110.919L197.528 112.808L197.49 113.201L203.442 113.848L204.964 113.867L205.264 113.892L211.916 113.214L218.237 114L219.441 113.975V113.968L218.862 110.095Z" fill="#FFD3AA"/>
<path d="M235.289 110.025L233.819 105.952L233.242 100.798L232.815 95.9913L231.99 91.471L231.81 87.1993L232.331 82.9339L232.132 79.054L232.411 75.1803L231.723 71.2879L231.432 67.4329L229.689 63.9758L228.709 63.2421L226.601 61.6938L223.364 59.6109L220.065 58.4917L216.623 58.0688L213.399 59.1881L209.833 59.8471L207.117 62.0669L205.108 62.5395L203.805 62.8441L199.892 63.3167L195.911 63.0369L192.005 64.1996L190.473 64.4421L190.733 65.866L190.436 70.0381L190.646 74.1979L190.088 78.7866L190.256 82.8904L192.234 82.8655L194.938 83.0583L195.204 82.9588L195.694 80.5836L197.232 82.5422L201.207 82.0199L205.746 81.4478L209.07 80.4281L211.644 80.1297L209.114 81.2862L205.914 82.5422L202.987 83.1391L199.434 83.7671L195.899 84.4573L192.302 84.8428L191.409 84.7122L190.529 84.7557L191.161 88.2315L191.62 93.386L192.085 97.496L193.4 97.4214L197.269 97.8318L198.807 98.0121L196.544 104.535L194.107 105.355L193.908 105.424L192.259 105.983L193.958 106.674L194.615 106.941L196.035 107.525L195.242 111.673L198.379 109.123L198.844 109.36L198.956 108.613L199.173 107.121L199.694 103.546L200.296 101.133L200.37 100.835L201.046 98.1178L204.084 98.0245H204.078L210.1 97.838L212.971 99.8091V99.8215L213.25 106.636L209.79 109.559L213.864 109.602L214.645 113.756L216.648 110.18L218.515 110.522L219.085 114.321L220.226 114.297L224.034 114.321L227.847 113.917L231.661 113.955L235.456 113.986L235.289 110.025ZM210.745 72.5626C210.745 72.5626 208.959 71.6299 208.636 71.0703C208.388 70.6475 208.066 69.634 208.022 69.1303C207.991 68.6951 208.159 67.4018 208.159 67.4018L210.441 65.5551C210.441 65.5551 212.475 65.0763 213.132 65.2629C213.733 65.437 214.844 66.2577 215.104 66.836C215.476 67.6194 215.048 70.2931 215.048 70.2931L213.244 72.2641L210.745 72.5626ZM223.159 71.5864C223.134 71.9843 222.793 72.7429 222.576 73.0724C222.452 73.2714 222.142 73.6445 221.931 73.7315C221.038 74.1481 218.98 74.1916 218.025 73.9554C217.578 73.8497 216.437 73.0103 216.437 73.0103L215.798 70.6475L216.753 68.7448C216.753 68.7448 217.665 67.7624 218.074 67.607C218.552 67.4329 220.108 67.6256 220.108 67.6256L222.576 69.1366C222.576 69.1366 223.203 70.9584 223.159 71.5864Z" fill="#388D3D"/>
<path d="M190.646 74.1976L190.088 78.7864L190.256 82.8902L188.891 82.9088L185.388 82.6788L181.946 81.4538L180.811 77.6921L178.417 80.4092L175.094 79.9118L174.759 79.7812L175.193 77.0641L175.41 73.01L177.673 69.64L180.638 67.0161L184.023 64.7839L188.141 64.8087L190.473 64.4419L190.733 65.8658L190.435 70.0379L190.646 74.1976Z" fill="#388D3D"/>
<path d="M192.085 97.4959L189.425 97.6514L185.648 96.5695L182.157 94.8471L178.765 92.8823L176.749 89.5122L175.608 85.7753L175.273 81.9825L178.163 83.0768L182.671 83.4996L186.963 84.538L188.352 87.5225L190.392 84.7618L190.528 84.7556L191.161 88.2314L191.62 93.3859L192.085 97.4959Z" fill="#388D3D"/>
<path d="M212.952 66.9478C212.549 66.8296 211.29 67.1281 211.29 67.1281L209.877 68.2722C209.877 68.2722 209.771 69.0743 209.79 69.3416C209.815 69.6525 210.019 70.2805 210.168 70.5417C210.367 70.8899 211.477 71.4681 211.477 71.4681L213.021 71.2816L214.137 70.0629C214.137 70.0629 214.403 68.409 214.174 67.924C214.007 67.5696 213.324 67.0597 212.952 66.954V66.9478Z" fill="#183B1A"/>
<path d="M219.5 68.8439C219.5 68.8439 218.539 68.7258 218.241 68.8377C217.987 68.931 217.423 69.5403 217.423 69.5403L216.833 70.7217L217.23 72.1829C217.23 72.1829 217.937 72.699 218.216 72.7674C218.805 72.9104 220.077 72.8855 220.629 72.6306C220.759 72.5746 220.951 72.3446 221.032 72.2202C221.168 72.015 221.379 71.5487 221.391 71.3C221.416 70.9145 221.032 69.7828 221.032 69.7828L219.506 68.8502L219.5 68.8439Z" fill="#183B1A"/>
<path d="M260.782 84.1194L259.902 77.1163L256.491 71.1432L251.901 66.6841L258.232 66.7602V62.8058L242.773 62.0488L243.413 76.7257L247.463 76.4699L248.542 71.9451L254.34 78.3434L255.349 88.613L251.949 97.9529L244.751 104.113L245.209 110.341L250.268 107.434L255.046 103.176L258.557 97.545L261.066 91.1191L260.774 84.1159L260.782 84.1194Z" fill="#60A464"/>
</g>
<defs>
<clipPath id="clip0_12265_216693">
<rect width="266.341" height="120" fill="white" transform="translate(42.8291 24)"/>
</clipPath>
</defs>
</svg>
