<svg width="24" height="24" viewBox="0 0 24 24" fill="none" xmlns="http://www.w3.org/2000/svg">
<path d="M18.5761 10.4974C21.1976 10.4974 23.3463 8.39167 23.3463 5.7702C23.3463 3.14874 21.1976 1.04297 18.5761 1.04297C15.9547 1.04297 13.8059 3.14874 13.8059 5.7702C13.8059 8.39167 15.9547 10.4974 18.5761 10.4974ZM18.5761 3.70741C19.6935 3.70741 20.5959 4.60988 20.5959 5.72723C20.5959 6.84457 19.6935 7.74705 18.5761 7.74705C17.4588 7.74705 16.5563 6.84457 16.5563 5.72723C16.5563 4.60988 17.4588 3.70741 18.5761 3.70741Z" fill="#A50064"/>
<path d="M18.5761 12.5602C15.9547 12.5602 13.8059 14.666 13.8059 17.2875C13.8059 19.9089 15.9547 22.0147 18.5761 22.0147C21.1976 22.0147 23.3463 19.9089 23.3463 17.2875C23.3463 14.666 21.1976 12.5602 18.5761 12.5602ZM18.5761 19.3073C17.4588 19.3073 16.5563 18.4048 16.5563 17.2875C16.5563 16.1701 17.4588 15.2677 18.5761 15.2677C19.6935 15.2677 20.5959 16.1701 20.5959 17.2875C20.5959 18.4048 19.6935 19.3073 18.5761 19.3073Z" fill="#A50064"/>
<path d="M8.8644 12.5602C8.04788 12.5602 7.31731 12.8181 6.71566 13.2908C6.11401 12.8611 5.38344 12.5602 4.56691 12.5602C2.59007 12.5602 1 14.1503 1 16.1272V22.0577H3.75039V16.0842C3.75039 15.6544 4.09419 15.2677 4.56691 15.2677C5.03964 15.2677 5.38344 15.6115 5.38344 16.0842V22.0577H8.09085V16.0842C8.09085 15.6544 8.43465 15.2677 8.90737 15.2677C9.33712 15.2677 9.7239 15.6115 9.7239 16.0842V22.0577H12.4313V16.0842C12.4313 14.1503 10.8412 12.5602 8.8644 12.5602Z" fill="#A50064"/>
<path d="M8.8644 1C8.04788 1 7.31731 1.25785 6.71566 1.73057C6.11401 1.30082 5.38344 1 4.56691 1C2.59007 1 1 2.59007 1 4.56691V10.4974H3.75039V4.52394C3.75039 4.09419 4.09419 3.70742 4.56691 3.70742C5.03964 3.70742 5.38344 4.05122 5.38344 4.52394V10.4974H8.09085V4.52394C8.09085 4.09419 8.43465 3.70742 8.90737 3.70742C9.33712 3.70742 9.7239 4.05122 9.7239 4.52394V10.4974H12.4743V4.56691C12.4313 2.59007 10.8412 1 8.8644 1Z" fill="#A50064"/>
</svg>
