<svg width="64" height="64" viewBox="0 0 64 64" fill="none" xmlns="http://www.w3.org/2000/svg">
<path d="M32.0115 53.1607C31.6423 53.1632 31.2789 53.0688 30.9576 52.8871C28.2071 51.2978 7.83566 38.5423 7.06634 38.1529C6.48085 37.88 6.08106 37.3211 6.01246 36.6795V18.788C5.99731 18.1202 6.32792 17.4917 6.88717 17.1252L7.03472 17.041C9.00546 15.8202 15.6027 11.7999 16.646 11.221C16.8854 11.0791 17.1581 11.0029 17.4364 11C17.6974 11.0029 17.9538 11.0679 18.1847 11.1894C18.1847 11.1894 27.4166 17.1989 28.8288 17.7356C29.8197 18.1902 30.9001 18.4168 31.9904 18.3986C33.2259 18.4244 34.4467 18.1269 35.5314 17.5356C36.912 16.8095 45.7329 11.221 45.8277 11.221C46.0501 11.0869 46.3057 11.0176 46.5655 11.021C46.8441 11.0224 47.1171 11.0988 47.3559 11.2421C48.5573 11.9051 56.7353 16.9042 57.0831 17.1252C57.6583 17.4717 58.007 18.0962 58 18.767V36.6584C57.9355 37.3016 57.5344 37.8623 56.9461 38.1319C56.1768 38.5528 35.8687 51.3084 33.0653 52.866C32.7462 53.0552 32.3826 53.1568 32.0115 53.1607Z" fill="url(#paint0_linear_1147_19421)"/>
<path d="M31.9058 53.1608L32.0112 53.1607C32.3804 53.1632 32.7438 53.0689 33.065 52.8871C35.8156 51.2979 56.1764 38.5423 56.9458 38.1529C57.534 37.8834 57.9351 37.3227 57.9996 36.6795V18.7881C58.003 18.4852 57.9344 18.1858 57.7994 17.9146L31.9058 32.1119V53.1608Z" fill="url(#paint1_linear_1147_19421)"/>
<path d="M31.8159 52.9084L31.7116 52.9084C31.3464 52.9109 30.9868 52.8175 30.669 52.6377C27.9477 51.0654 7.80382 38.4457 7.04267 38.0605C6.46068 37.7938 6.06388 37.2391 6.00006 36.6028V18.9019C5.9967 18.6023 6.06457 18.3061 6.19816 18.0377L31.8159 32.0838V52.9084Z" fill="url(#paint2_linear_1147_19421)"/>
<defs>
<linearGradient id="paint0_linear_1147_19421" x1="5.98038" y1="11.3853" x2="57.4905" y2="10.9857" gradientUnits="userSpaceOnUse">
<stop offset="1e-07" stop-color="#FF9200"/>
<stop offset="0.337553" stop-color="#F36D00"/>
<stop offset="0.56729" stop-color="#F83C72"/>
<stop offset="0.78" stop-color="#FC1CBE"/>
<stop offset="0.93" stop-color="#FE08ED"/>
<stop offset="1" stop-color="#FF00FF"/>
</linearGradient>
<linearGradient id="paint1_linear_1147_19421" x1="20.4507" y1="48.761" x2="72.9341" y2="19.6618" gradientUnits="userSpaceOnUse">
<stop stop-color="#EE0A3F"/>
<stop offset="1" stop-color="#EE0A3F" stop-opacity="0"/>
</linearGradient>
<linearGradient id="paint2_linear_1147_19421" x1="25.5616" y1="41.1933" x2="0.21151" y2="20.7446" gradientUnits="userSpaceOnUse">
<stop stop-color="#ED6600"/>
<stop offset="1" stop-color="#F98200"/>
</linearGradient>
</defs>
</svg>
