<svg width="64" height="64" viewBox="0 0 64 64" fill="none" xmlns="http://www.w3.org/2000/svg">
<path d="M40.0559 44.4161C39.7794 46.81 38.3372 48.7483 36.1035 49.7066C34.8519 50.2376 33.1805 50.5285 31.8398 50.442C29.7772 50.3555 27.8436 49.8413 26.0389 48.9282C25.4145 48.5824 24.4525 47.9341 23.7185 47.3287C23.5375 47.1557 23.5072 47.0692 23.6385 46.8902C23.6961 46.7853 23.825 46.5933 24.0892 46.2045C24.492 45.6313 24.5351 45.5556 24.578 45.4821C24.7068 45.2961 24.9032 45.2791 25.1084 45.4261C25.1365 45.4549 25.1365 45.4549 25.152 45.4689C25.1794 45.499 25.1794 45.499 25.253 45.5554C25.3289 45.614 25.384 45.6419 25.3975 45.675C27.3315 47.1985 29.5827 48.0633 31.8553 48.1499C35.0098 48.1071 37.2767 46.6798 37.6944 44.4741C38.1244 42.0737 36.2444 39.9782 32.568 38.8097C31.4098 38.4638 28.4951 37.2924 27.9569 36.9664C25.4373 35.4813 24.2546 33.532 24.4266 31.1146C24.6845 27.7738 27.7687 25.2872 31.6668 25.2655C33.397 25.2655 35.1411 25.6284 36.7957 26.3289C37.3925 26.5843 38.4575 27.1649 38.8117 27.4425C39.0243 27.601 39.0696 27.7738 38.9386 27.9675C38.8949 28.0856 38.7666 28.2616 38.5452 28.6389C38.2222 29.1345 38.2102 29.1551 38.1516 29.2641C38.0366 29.4461 37.8722 29.4606 37.6533 29.3304C35.8848 28.12 33.8901 27.5143 31.7106 27.4711C29.0035 27.5143 26.968 29.138 26.837 31.3628C26.81 33.3614 28.2932 34.8173 31.5054 35.9137C38.0386 38.0317 40.5307 40.5062 40.0559 44.4161ZM31.9999 9.92766C36.2446 9.92766 39.7123 13.9805 39.884 19.0611H24.126C24.2776 13.9805 27.7554 9.92766 31.9999 9.92766ZM54 20.0237C54 19.4935 53.5922 19.0611 53.0718 19.0611H53.0377H42.851C42.5933 12.3579 37.8284 7 31.9999 7C26.1679 7 21.4154 12.3579 21.1612 19.0611H10.9318C10.4187 19.0729 10.0116 19.4957 10.0116 20.0237C10.0116 20.0542 10.0116 20.0676 10.0116 20.0981H10L11.4529 52.4309C11.4529 52.5184 11.4699 52.6066 11.4699 52.7117C11.4699 52.7321 11.4727 52.7385 11.4727 52.777V52.8264L11.4834 52.8436C11.7021 55.0978 13.3205 56.8949 15.5323 56.9829V57H47.9792C47.9962 57 48.0062 57 48.0231 57C48.0482 57 48.0482 57 48.0667 57H48.134V56.9829C50.3772 56.928 52.2139 55.0978 52.389 52.8188L52.3988 52.777C52.3988 52.7556 52.3988 52.7323 52.3988 52.7117C52.3988 52.6458 52.4158 52.604 52.4158 52.5355L54 20.0676C54 20.0557 54 20.0373 54 20.0237Z" fill="#EE4D2D"/>
</svg>
