<svg width="64" height="64" viewBox="0 0 64 64" fill="none" xmlns="http://www.w3.org/2000/svg">
<path fill-rule="evenodd" clip-rule="evenodd" d="M39.7623 21.4449V21.4451C43.3124 23.9806 47.6598 25.4726 52.3553 25.4726V25.4724C47.6598 25.4724 43.3124 23.9804 39.7623 21.4449ZM52.3554 18.3631C53.2249 18.5473 54.1113 18.6399 55 18.6397V27.6717C50.3041 27.6717 45.9563 26.1797 42.4071 23.6441V42.075C42.4071 51.2958 34.9283 58.7699 25.7031 58.7699C21.0235 58.7699 16.7936 56.847 13.7605 53.7473C13.7606 53.7474 13.7607 53.7475 13.7608 53.7475C10.815 50.7378 9 46.6186 9 42.0748C9 32.9725 16.2885 25.5714 25.351 25.3843V32.5712C25.3511 32.5712 25.3512 32.5712 25.3513 32.5713V25.3841C26.2349 25.3654 27.1189 25.4164 27.9949 25.5363V34.7702C27.2453 34.5325 26.4636 34.4121 25.6771 34.4123C21.457 34.4123 18.0364 37.8316 18.0364 42.0486C18.034 43.7191 18.5816 45.3438 19.595 46.6718C17.1017 45.4141 15.3919 42.8323 15.3919 39.8501C15.3919 37.8733 16.1434 36.0719 17.3764 34.7158C16.1432 36.072 15.3916 37.8735 15.3916 39.8503C15.3916 42.8321 17.1014 45.4141 19.5945 46.6718C20.9907 48.5033 23.1953 49.6855 25.6768 49.6855C29.8878 49.6855 33.3026 46.2802 33.3175 42.0747V6H39.9005H39.9006H42.4067V7.1617C42.6644 9.9914 43.8553 12.551 45.6691 14.5316C45.6692 14.5316 45.6692 14.5316 45.6693 14.5317C47.4139 16.4359 49.7343 17.8049 52.3554 18.3629V18.3631Z" fill="black"/>
</svg>
