<svg width="61" height="88" viewBox="0 0 61 88" fill="none" xmlns="http://www.w3.org/2000/svg">
<path d="M28.3528 28.1743C28.4385 29.2018 30.6631 30.9697 33.8411 31.1076C34.0523 31.1165 34.2105 31.3033 34.1803 31.5129L33.7913 34.2366C44.9366 34.7715 55.1897 38.1599 55.1897 44.7572C55.1897 71.0591 51.0886 82.1456 30.1363 82.1456C9.18401 82.1456 5.171 71.0599 5.171 44.758C5.171 40.3894 11.6794 36.4661 17.8314 34.9501L15.3352 24.697C10.6992 24.1621 7.66721 22.2897 7.66721 19.2585C7.66721 17.6537 8.64824 16.4949 10.9659 16.4949C11.8572 16.4949 12.6596 16.4949 13.4621 16.406C12.6596 11.0564 17.0282 6.50922 23.7152 6.50922C28.7973 6.50922 31.6507 9.09512 32.6309 12.6612C34.9493 11.6802 36.5542 10.7889 38.694 10.7889C40.8339 10.7889 42.2602 11.6802 42.2602 13.8201C42.2602 17.0298 39.3179 19.3482 34.1469 20.6856L36.493 24.3113C36.7728 24.7435 36.5134 25.3209 36.0046 25.3992L34.1347 25.687C33.8851 25.7253 33.7538 26.0042 33.8843 26.2212L34.4144 27.1052C35.0382 28.1751 33.8794 28.71 32.542 28.71C31.1157 28.71 29.6886 28.5314 28.3512 28.1751L28.3528 28.1743ZM40.122 56.8835C38.3385 57.4184 38.1607 56.2596 39.052 55.3675C41.9943 52.5141 43.1531 48.6805 43.1531 46.2732C43.1531 43.4198 42.6182 42.4396 41.1919 42.4396C37.9821 42.4396 32.2762 45.293 31.0276 51.445C30.8491 52.2474 30.5816 52.6935 30.2252 52.6935C29.8688 52.6935 29.6014 52.2474 29.4228 51.445C28.264 45.293 21.6659 42.4396 18.9911 42.4396C18.0997 42.4396 17.9211 42.9745 17.9211 44.223C17.9211 49.1266 22.0222 54.7436 28.7092 54.7436C32.7214 54.7436 35.3073 52.1577 38.6949 47.7003C39.2298 46.9867 39.8537 47.4328 39.4973 48.3241C37.09 54.3873 32.7214 58.132 26.9257 58.132C21.1301 58.132 17.2076 56.3485 12.5707 52.0688C11.4119 50.9989 10.4309 51.445 10.4309 52.5149C10.4309 60.0043 11.6794 66.1564 14.0867 70.1686C16.494 74.2696 22.6461 76.2668 30.1355 76.2668C37.6249 76.2668 43.8659 74.2696 46.2732 70.1686C48.6805 66.1564 49.929 60.0043 49.929 52.5149C49.929 51.445 48.948 50.9989 47.7892 52.0688C45.293 54.3873 42.8856 56.081 40.1211 56.8835H40.122ZM30.1355 0C5.34959 0 0 15.9591 0 44.0444C0 72.1298 5.34959 88 30.1355 88C54.9214 88 60.3607 72.0409 60.3607 44.0444C60.3607 16.048 54.9222 0 30.1355 0Z" fill="#FF4D00"/>
</svg>
