<svg width="35" height="23" viewBox="0 0 35 23" fill="none" xmlns="http://www.w3.org/2000/svg">
<path d="M35.0007 1.25V11.25C35.0007 11.5815 34.869 11.8995 34.6346 12.1339C34.4002 12.3683 34.0822 12.5 33.7507 12.5C33.4192 12.5 33.1012 12.3683 32.8668 12.1339C32.6324 11.8995 32.5007 11.5815 32.5007 11.25V4.26719L19.6351 17.1344C19.519 17.2506 19.3811 17.3428 19.2294 17.4057C19.0776 17.4686 18.915 17.501 18.7507 17.501C18.5864 17.501 18.4238 17.4686 18.272 17.4057C18.1203 17.3428 17.9824 17.2506 17.8663 17.1344L12.5007 11.7672L2.13507 22.1344C1.90052 22.3689 1.5824 22.5007 1.25069 22.5007C0.91899 22.5007 0.600871 22.3689 0.36632 22.1344C0.131769 21.8998 0 21.5817 0 21.25C0 20.9183 0.131769 20.6002 0.36632 20.3656L11.6163 9.11562C11.7324 8.9994 11.8703 8.90721 12.022 8.8443C12.1738 8.78139 12.3364 8.74902 12.5007 8.74902C12.665 8.74902 12.8276 8.78139 12.9794 8.8443C13.1311 8.90721 13.269 8.9994 13.3851 9.11562L18.7507 14.4828L30.7335 2.5H23.7507C23.4192 2.5 23.1012 2.3683 22.8668 2.13388C22.6324 1.89946 22.5007 1.58152 22.5007 1.25C22.5007 0.918479 22.6324 0.600537 22.8668 0.366117C23.1012 0.131696 23.4192 0 23.7507 0H33.7507C34.0822 0 34.4002 0.131696 34.6346 0.366117C34.869 0.600537 35.0007 0.918479 35.0007 1.25Z" fill="#12B76A"/>
</svg>
