<svg width="32" height="28" viewBox="0 0 32 28" fill="none" xmlns="http://www.w3.org/2000/svg">
<path d="M29.2727 5.09091H3.81818C3.48063 5.09091 3.15691 4.95682 2.91823 4.71814C2.67955 4.47945 2.54545 4.15573 2.54545 3.81818C2.54545 3.48063 2.67955 3.15691 2.91823 2.91823C3.15691 2.67955 3.48063 2.54545 3.81818 2.54545H25.4545C25.7921 2.54545 26.1158 2.41136 26.3545 2.17268C26.5932 1.934 26.7273 1.61028 26.7273 1.27273C26.7273 0.935179 26.5932 0.611456 26.3545 0.372773C26.1158 0.134091 25.7921 0 25.4545 0H3.81818C2.80554 0 1.83437 0.402272 1.11832 1.11832C0.402272 1.83437 0 2.80554 0 3.81818V24.1818C0 25.1945 0.402272 26.1656 1.11832 26.8817C1.83437 27.5977 2.80554 28 3.81818 28H29.2727C29.9478 28 30.5953 27.7318 31.0726 27.2545C31.55 26.7771 31.8182 26.1296 31.8182 25.4545V7.63636C31.8182 6.96127 31.55 6.31382 31.0726 5.83646C30.5953 5.35909 29.9478 5.09091 29.2727 5.09091ZM29.2727 25.4545H3.81818C3.48063 25.4545 3.15691 25.3205 2.91823 25.0818C2.67955 24.8431 2.54545 24.5194 2.54545 24.1818V7.41841C2.95412 7.56327 3.3846 7.63699 3.81818 7.63636H29.2727V25.4545ZM21.6364 15.9091C21.6364 15.5315 21.7483 15.1624 21.9581 14.8485C22.1679 14.5345 22.466 14.2898 22.8149 14.1453C23.1637 14.0008 23.5476 13.963 23.9179 14.0367C24.2882 14.1103 24.6284 14.2922 24.8954 14.5592C25.1624 14.8262 25.3442 15.1663 25.4179 15.5366C25.4915 15.907 25.4537 16.2908 25.3092 16.6397C25.1647 16.9885 24.92 17.2867 24.6061 17.4964C24.2921 17.7062 23.923 17.8182 23.5455 17.8182C23.0391 17.8182 22.5535 17.617 22.1955 17.259C21.8375 16.901 21.6364 16.4154 21.6364 15.9091Z" fill="#A7A7A7"/>
</svg>
